{"title":"The.Michael.J.Fox.Show.S01E11.Christmas.1080p.WEB.DL.DD5.1.H.264","uid":9380188,"size":873430817,"categoryP":"video","categoryS":"hd___tv_shows","magnet":"?xt=urn:btih:79a6de76459b91abba259c93eed1675fcd7bbcf7&amp;dn=The.Michael.J.Fox.Show.S01E11.Christmas.1080p.WEB.DL.DD5.1.H.264&amp;tr=udp%3A%2F%2Ftracker.openbittorrent.com%3A80&amp;tr=udp%3A%2F%2Fopen.demonii.com%3A1337&amp;tr=udp%3A%2F%2Ftracker.coppersurfer.tk%3A6969&amp;tr=udp%3A%2F%2Fexodus.desync.com%3A6969","seeders":1,"leechers":0,"uploader":"azcom_","files":1,"time":1387699335,"description":"General\nUnique ID                      : 225136146165381848334242750070137898282 (0xA95FA500FDEC87AB99A4E89F8F3D452A)\nComplete name                  : The.Michael.J.Fox.Show.S01E11.Christmas.1080p.WEB.DL.DD5.1.H.264.CtrlHD.mkv\nFormat                         : Matroska\nFormat version                 : Version 2\nFile size                      : 833 MiB\nDuration                       : 21mn 31s\nOverall bit rate               : 5 410 Kbps\nEncoded date                   : UTC 2013-12-12 18:59:12\nWriting application            : mkvmerge v5.8.0 ('No Sleep / Pillow') built on Sep  2 2012 15:37:04\nWriting library                : libebml v1.2.3 + libmatroska v1.3.0\n\nVideo\nID                             : 1\nFormat                         : AVC\nFormat/Info                    : Advanced Video Codec\nFormat profile                 : &lt;a class=&quot;__cf_email__&quot; href=&quot;/cdn-cgi/l/email-protection&quot; data-cfemail=&quot;753d1c121d3539415b45&quot;&gt;[email&amp;#160;protected]&lt;/a&gt;&lt;script cf-hash='f9e31' type=&quot;text/javascript&quot;&gt;\n/* &lt;![CDATA[ */!function(){try{var t=&quot;currentScript&quot;in document?document.currentScript:function(){for(var t=document.getElementsByTagName(&quot;script&quot;),e=t.length;e--;)if(t[e].getAttribute(&quot;cf-hash&quot;))return t[e]}();if(t&amp;&amp;t.previousSibling){var e,r,n,i,c=t.previousSibling,a=c.getAttribute(&quot;data-cfemail&quot;);if(a){for(e=&quot;&quot;,r=parseInt(a.substr(0,2),16),n=2;a.length-n;n+=2)i=parseInt(a.substr(n,2),16)^r,e+=String.fromCharCode(i);e=document.createTextNode(e),c.parentNode.replaceChild(e,c)}}}catch(u){}}();/* ]]&gt; */&lt;/script&gt;\nFormat settings, CABAC         : Yes\nFormat settings, ReFrames      : 4 frames\nCodec ID                       : V_MPEG4/ISO/AVC\nDuration                       : 21mn 31s\nBit rate                       : 4 918 Kbps\nWidth                          : 1 916 pixels\nHeight                         : 1 076 pixels\nDisplay aspect ratio           : 16:9\nFrame rate mode                : Constant\nFrame rate                     : 23.976 fps\nColor space                    : YUV\nChroma subsampling             : 4:2:0\nBit depth                      : 8 bits\nScan type                      : Progressive\nBits/(Pixel*Frame)             : 0.100\nStream size                    : 757 MiB (91%)\nLanguage                       : English\nDefault                        : Yes\nForced                         : No\nColor primaries                : BT.709\nTransfer characteristics       : BT.709\nMatrix coefficients            : BT.709\n\nAudio\nID                             : 2\nFormat                         : AC-3\nFormat/Info                    : Audio Coding 3\nMode extension                 : CM (complete main)\nFormat settings, Endianness    : Big\nCodec ID                       : A_AC3\nDuration                       : 21mn 31s\nBit rate mode                  : Constant\nBit rate                       : 384 Kbps\nChannel count                  : 6 channels\nChannel positions              : Front: L C R, Side: L R, LFE\nSampling rate                  : 48.0 KHz\nBit depth                      : 16 bits\nCompression mode               : Lossy\nStream size                    : 59.1 MiB (7%)\nLanguage                       : English\nDefault                        : Yes\nForced                         : No\n\nText\nID                             : 3\nFormat                         : UTF-8\nCodec ID                       : S_TEXT/UTF8\nCodec ID/Info                  : UTF-8 Plain Text\nTitle                          : CC\nLanguage                       : English\nDefault                        : No\nForced                         : No\n\n","torrent":{"xt":"urn:btih:79a6de76459b91abba259c93eed1675fcd7bbcf7","amp;dn":"The.Michael.J.Fox.Show.S01E11.Christmas.1080p.WEB.DL.DD5.1.H.264","amp;tr":["udp%3A%2F%2Ftracker.openbittorrent.com%3A80","udp%3A%2F%2Fopen.demonii.com%3A1337","udp%3A%2F%2Ftracker.coppersurfer.tk%3A6969","udp%3A%2F%2Fexodus.desync.com%3A6969"],"infoHash":"79a6de76459b91abba259c93eed1675fcd7bbcf7","infoHashBuffer":{"type":"Buffer","data":[121,166,222,118,69,155,145,171,186,37,156,147,238,209,103,95,205,123,188,247]},"announce":[],"urlList":[]}}